
        <svg xmlns="http://www.w3.org/2000/svg" xmlns:xlink="http://www.w3.org/1999/xlink" version="1.1" width="3193.548387096774" height="2553.757865246041" viewBox="0 0 3193.548387096774 2553.757865246041">
			
			<g transform="scale(9.67741935483871) translate(10, 10)">
				<defs id="SvgjsDefs1586"/><g id="SvgjsG1587" featureKey="symbolFeature-0" transform="matrix(0.12079746842183375,0,0,0.12079746842183375,93.88064946170377,-7.8495986961995605)" fill="#000"><g xmlns="http://www.w3.org/2000/svg"><path d="M579.15,90.46c-10.46-8.27-20.08-15.81-29.42-23.06c-0.92-0.71-1.99-1.2-3.13-1.43c-11.6-2.31-25.06-0.54-37.92,4.98   c-11.04,4.74-20.31,11.41-29.27,17.86l-58.27,41.97l-11.45,8.25l-10.64,7.66l-10.98,7.91c-4.7,3.39-9.46,7.02-14.07,10.53   c-14.19,10.83-28.81,21.98-45.78,29.4c-2.11,0.92-4.25,1.79-6.44,2.59c-0.18,0.07-0.37,0.14-0.54,0.22   c-3.13,1.42-4.91,4.81-4.26,8.23c0.07,0.39,0.15,0.77,0.21,1.16c2.52,14.11,1.67,28.34-2.63,44.65c-0.74,2.78,0.18,5.73,2.37,7.6   c1.38,1.19,3.12,1.81,4.88,1.81c1.02,0,2.04-0.21,3-0.63c42-18.33,89.44-54.83,124.07-81.49l4.39-3.37   c25.51-19.61,85.24-65.53,122.43-71.56c2.94-0.47,5.31-2.64,6.06-5.52C582.51,95.35,581.48,92.3,579.15,90.46z M355.01,219.66   c-4.41,0-8-3.58-8-8c0-4.41,3.59-8,8-8c4.41,0,8,3.59,8,8C363.01,216.08,359.42,219.66,355.01,219.66z M383.89,200.16   c-4.42,0-8-3.58-8-8c0-4.41,3.58-8,8-8c4.41,0,8,3.59,8,8C391.89,196.58,388.3,200.16,383.89,200.16z M411.01,180.81   c-4.41,0-8-3.58-8-8c0-4.41,3.59-8,8-8c4.41,0,8,3.59,8,8C419.01,177.23,415.42,180.81,411.01,180.81z M436.51,161.66   c-4.41,0-8-3.58-8-8c0-4.41,3.59-8,8-8c4.41,0,8,3.59,8,8C444.51,158.08,440.92,161.66,436.51,161.66z M462.51,142.16   c-4.41,0-8-3.58-8-8c0-4.41,3.59-8,8-8c4.41,0,8,3.59,8,8C470.51,138.58,466.92,142.16,462.51,142.16z M489.01,122.91   c-4.41,0-8-3.58-8-8c0-4.41,3.59-8,8-8c4.41,0,8,3.59,8,8C497.01,119.33,493.42,122.91,489.01,122.91z M518.51,104.06   c-4.41,0-8-3.58-8-8c0-4.41,3.59-8,8-8c4.41,0,8,3.59,8,8C526.51,100.48,522.92,104.06,518.51,104.06z"/><path d="M291.53,621.55c-3.38,0-6.35-2.26-7.24-5.53c-20.69-76.13-41.35-173.18-17.19-248.5c5.87-18.28,14.16-35.98,22.19-53.1   c4.67-9.95,9.49-20.25,13.72-30.43c3.98-9.59,8.47-20.97,11.56-32.62l14.5,3.84c-3.31,12.51-8.03,24.48-12.2,34.54   c-4.36,10.49-9.26,20.94-13.99,31.04c-7.82,16.69-15.91,33.95-21.48,51.31c-20.35,63.44-6.79,144.73,10.58,214.02   c16.31-44.64,48.8-92.46,84.95-123.25c7.42-6.32,15.09-12.68,22.5-18.83c33.91-28.13,68.98-57.21,91.84-91.97   c0.4-0.6,0.77-1.17,1.14-1.74l12.64,8.08c-0.42,0.65-0.84,1.3-1.27,1.94c-24.07,36.6-60.01,66.41-94.77,95.24   c-7.37,6.12-15,12.44-22.35,18.7c-41.14,35.04-77.24,93.17-87.79,141.36c-0.74,3.38-3.69,5.81-7.14,5.89   C291.65,621.55,291.59,621.55,291.53,621.55z"/><path d="M524.74,947.72c-3.58,0.92-7.66-0.14-22-4.85c-3.42-1.12-8.06-2.65-9.47-2.93c-5.33-0.22-10.89,2.04-16.78,4.44   c-5.48,2.23-11.14,4.53-17.52,5.35c-7.7,0.99-14.92-1.02-21.3-2.8c-5.43-1.51-10.56-2.93-15.23-2.39   c-4.12,0.48-8.22,2.56-12.55,4.76c-6.15,3.12-13.12,6.67-21.64,6.3c-6.57-0.28-12.22-2.86-17.21-5.14   c-4.89-2.23-9.11-4.15-12.9-3.45c-2.64,0.48-5.1,2.32-7.94,4.46c-3.7,2.77-8.3,6.21-14.58,7.25c-1.34,0.22-2.65,0.32-3.92,0.32   c-6.37,0-11.87-2.5-16.82-4.74c-3.43-1.56-6.68-3.03-9.76-3.47c-4.13-0.6-8.77,0.53-13.69,1.73c-5.06,1.23-10.78,2.62-16.85,2.3   c-7.51-0.4-13.93-3.32-19.6-5.88c-1.29-0.59-2.57-1.17-3.86-1.72c-6.69-2.84-12.3-3.55-15.82-1.98c-2.23,1-4.81,0.84-6.91-0.42   c-2.1-1.26-3.45-3.46-3.62-5.9c-0.86-12.2,0.35-24.8,3.7-38.52c0.93-3.8,4.61-6.24,8.47-5.63c7.4,1.18,14.28,3.39,20.35,5.34   c9.99,3.2,17.88,5.72,23.99,3.07c2.12-0.92,4.31-2.28,6.62-3.72c5.17-3.23,11.03-6.88,18.48-6.98h0.29c6.44,0,11.82,2.7,16.57,5.09   c3.61,1.81,6.98,3.49,9.92,3.49c3.15-0.04,6.53-2.03,10.46-4.34c4.45-2.62,9.5-5.59,15.64-6.33c7.68-0.92,14.37,1.9,20.27,4.39   c4.08,1.72,7.93,3.35,11.42,3.46c4.85,0.19,10.03-2.56,15.51-5.45c6.6-3.47,14.06-7.42,22.82-7.18c6.56,0.17,12.29,2.66,17.34,4.86   c3.83,1.67,7.44,3.24,10.83,3.59c6.15,0.65,12.69-2.53,19.61-5.88c1.69-0.82,3.45-1.67,5.22-2.47c10.98-4.97,26.63-7.04,36.84-0.48   c1.72,1.11,2.91,2.87,3.3,4.87c3.29,16.83,5.87,32.99,7.89,49.4C530.78,943.28,528.39,946.79,524.74,947.72z"/><path d="M799.2,804.42c-4.42-15.25-8.73-30.78-12.79-46.14c-0.78-2.94-3.25-5.11-6.26-5.51c-3.02-0.4-5.97,1.05-7.49,3.69   c-14.35,24.92-38.16,46.05-65.32,57.97c-30.45,13.36-59.56,23.92-84.03,32.49c-26.93,9.42-63.82,22.33-86.55,46.55   c-2.2,2.35-2.66,5.84-1.14,8.68c6.65,12.36,14.54,24.16,23.46,35.06c1.29,1.58,3.17,2.56,5.2,2.73c0.2,0.01,0.4,0.02,0.6,0.02   c1.82,0,3.6-0.67,4.97-1.88c27.1-23.99,66-36.89,103.61-49.36c5.14-1.7,10.27-3.4,15.36-5.13c43.77-14.83,91.06-35.19,109.92-73.79   C799.56,808.13,799.72,806.21,799.2,804.42z M577.28,906.11c-4.41,0-8-3.59-8-8c0-4.41,3.59-8,8-8c4.41,0,8,3.59,8,8   C585.28,902.52,581.69,906.11,577.28,906.11z M606.28,891.11c-4.41,0-8-3.59-8-8c0-4.41,3.59-8,8-8c4.41,0,8,3.59,8,8   C614.28,887.52,610.69,891.11,606.28,891.11z M638.78,879.36c-4.41,0-8-3.59-8-8c0-4.41,3.59-8,8-8c4.41,0,8,3.59,8,8   C646.78,875.77,643.19,879.36,638.78,879.36z M670.53,868.61c-4.41,0-8-3.59-8-8c0-4.41,3.59-8,8-8c4.41,0,8,3.59,8,8   C678.53,865.02,674.94,868.61,670.53,868.61z M701.53,857.11c-4.41,0-8-3.59-8-8c0-4.41,3.59-8,8-8c4.41,0,8,3.59,8,8   C709.53,853.52,705.94,857.11,701.53,857.11z M732.53,842.86c-4.41,0-8-3.59-8-8c0-4.41,3.59-8,8-8c4.41,0,8,3.59,8,8   C740.53,839.27,736.94,842.86,732.53,842.86z M760.28,822.69c-4.41,0-8-3.59-8-8s3.59-8,8-8c4.41,0,8,3.59,8,8   S764.69,822.69,760.28,822.69z"/><path d="M535.63,902.15c-30.09-55.93-32.1-119.49-33.71-170.57L487.5,276.93l14.99-0.47l14.41,454.66   c1.65,52.08,3.51,111.11,31.93,163.93L535.63,902.15z"/><path d="M771.91,762.12c-40.45-153.01-62.28-309.99-64.9-466.56l-0.05-2.74c-0.41-24.75-0.83-50.34-11.32-72.78   c-12.85-27.48-40.58-49.72-65.04-69.35l-1.7-1.36c-19.3-15.47-39.26-31.47-59.06-47.1l9.3-11.77   c19.84,15.67,39.82,31.68,59.14,47.17l1.7,1.36c25.74,20.65,54.92,44.06,69.24,74.7c11.85,25.34,12.3,52.56,12.73,78.88l0.05,2.74   c2.6,155.37,24.26,311.14,64.4,462.98L771.91,762.12z"/><path d="M272.33,410.67l-12.28-8.62c26.08-37.16,66.55-65.94,105.69-93.77c7.69-5.47,14.95-10.63,22.14-15.88   c40.44-29.54,85.38-64.99,106.88-112.08l13.65,6.23c-23,50.39-69.7,87.31-111.68,117.97c-7.27,5.31-14.91,10.74-22.29,15.99   C336.33,347.6,296.93,375.62,272.33,410.67z"/><path d="M278.88,531.96l-14.27-4.63c10.96-33.79,35.64-55.82,62.12-77.24c2.56-2.07,5.14-4.14,7.72-6.21   c23.63-18.96,48.06-38.57,62.23-63.54l13.04,7.4c-15.59,27.47-41.16,47.99-65.89,67.83c-2.57,2.06-5.13,4.12-7.68,6.18   C311.5,481.7,288.57,502.09,278.88,531.96z"/><path d="M684.89,794.41l-14.76-2.66c11.01-61.18,9.3-74.25,2.93-122.9l-0.04-0.3c-3.3-25.18-8.23-50.74-13-75.44   c-4.51-23.37-9.18-47.53-12.5-71.53c-11.93-86.2-7.26-172.97,13.88-257.92l14.56,3.62c-20.67,83.09-25.24,167.96-13.58,252.25   c3.27,23.61,7.89,47.57,12.37,70.74c4.81,24.93,9.79,50.71,13.15,76.34l0.04,0.3C694.37,716.1,696.31,730.94,684.89,794.41z"/><path d="M617.26,815.3l-14.83-2.23c10.53-70.16-1.06-127.28-14.48-193.42c-3.3-16.29-6.72-33.13-9.92-50.76   c-16.26-89.61-26.39-184.43,9.22-270.75l13.87,5.72c-34.14,82.74-24.18,174.99-8.33,262.35c3.17,17.47,6.57,34.24,9.86,50.45   C616.35,684.21,628.18,742.53,617.26,815.3z"/><g><path d="M421.14,130.78l-11.45,8.25l-10.64,7.66l-10.98,7.91c-4.7,3.39-9.46,7.02-14.07,10.53    c-14.19,10.83-28.81,21.98-45.78,29.4c-2.11,0.92-4.25,1.79-6.44,2.59c-0.18,0.07-0.37,0.14-0.54,0.22    c-3.13,1.42-4.91,4.81-4.26,8.23c0.07,0.39,0.15,0.77,0.21,1.16c-6.85-12.55-6.78-27.38-6.68-49.47c0.01-2.83,0.02-5.79,0.02-8.91    c0.12-15.48-2.62-20.72-9.26-33.37c-0.8-1.54-1.66-3.17-2.56-4.92c-0.99-1.91-1.1-4.16-0.32-6.16c0.79-2.01,2.39-3.58,4.42-4.32    c7.66-2.79,13.89-5.09,20.11-7.38c6.29-2.32,12.57-4.63,20.31-7.45c3.54-1.3,7.5,0.25,9.23,3.6c1.61,3.12,3.06,6.01,4.4,8.68    c7.12,14.18,10.7,21.3,19.75,27.07c13.8,8.79,23.77,8.09,37.57,7.12C416.42,131.07,418.73,130.9,421.14,130.78z"/></g><path d="M507.7,893.01c-7.92-40.63-18.51-77.14-28.75-112.44c-2.25-7.76-4.48-15.46-6.67-23.12c-0.97-3.41-2.01-6.93-3.08-10.56   c-7.44-25.27-16.7-56.72-15.32-90.45c1.46-35.44,10.74-56.71,27.61-95.31c4.1-9.39,8.75-20.03,13.87-32.21l13.83,5.82   c-5.16,12.27-9.83,22.96-13.95,32.4c-16.66,38.15-25.03,57.29-26.37,89.92c-1.28,31.25,7.6,61.39,14.73,85.6   c1.08,3.68,2.13,7.24,3.11,10.69c2.18,7.64,4.4,15.32,6.65,23.05c10.34,35.62,21.02,72.46,29.07,113.75L507.7,893.01z"/><path d="M243.05,904l-14.57-3.55c4.37-17.9,11.83-35.35,19.04-52.23c7.18-16.79,14.59-34.15,18.61-51.36   c6.38-27.35,7.59-59.21,8.75-90.03c1.21-31.95,2.46-64.98,9.35-94.48l14.61,3.41c-6.56,28.1-7.78,60.4-8.97,91.64   c-1.19,31.52-2.43,64.12-9.13,92.87c-4.32,18.49-12,36.46-19.43,53.84C254.33,870.42,247.12,887.3,243.05,904z"/><path d="M315.09,862.77l-14.02-5.32c29.39-77.46,28.96-109.48,28.19-167.6l-0.01-0.4c-0.08-6.24-0.21-12.75-0.35-19.47   c-1.15-57.57-2.58-129.21,21.47-180.32l13.57,6.39c-22.56,47.93-21.17,117.63-20.05,173.64c0.13,6.76,0.27,13.3,0.35,19.57l0,0.4   C345.02,747.64,345.48,782.65,315.09,862.77z"/><path d="M392.67,857.27l-14.99-0.43c1.01-35.53-5.72-73.68-12.23-110.57c-4.08-23.1-8.29-46.99-10.5-69.81   c-3.2-33.04-5.97-68.51-4.56-104.05c1.8-45.45,9.92-80.61,24.84-107.47l13.12,7.28c-32.45,58.46-23,155.95-18.46,202.8   c2.16,22.24,6.32,45.84,10.34,68.65C386.86,781.3,393.73,820.21,392.67,857.27z"/><path d="M441.17,850.8c-6.6-41.3-19.94-83.44-32.85-124.18c-6.1-19.25-12.4-39.15-17.9-58.68c-9.71-34.49-15.38-75.25-15.56-111.82   c-0.22-45.77,8.03-84.13,23.86-110.93l12.92,7.63c-30.8,52.14-25.1,145.96-6.78,211.05c5.43,19.29,11.7,39.08,17.76,58.21   c13.07,41.27,26.58,83.94,33.36,126.34L441.17,850.8z"/></g></g><g id="SvgjsG1588" featureKey="nameFeature-0" transform="matrix(1.9124470271124603,0,0,1.9124470271124603,-0.000005927517736545082,109.25801876952757)" fill="#000"><path d="M4.36 18.6 c1.64 -2.84 3.72 -5.72 6.48 -7.6 c0.88 -0.6 1.88 -1.2 2.96 -1.2 c1.28 0 1.84 0.92 1.84 2.12 c0 2.28 -1.28 4.48 -2.68 6.16 c-0.2 0.28 -0.92 1.08 -1 1.2 l-1.4 1.4 l-1.68 1.48 l-3.52 2.8 l-0.04 0.04 l-0.8 2.72 l0 0.04 l0 -0.04 c1.48 -2.12 5.04 -5.84 7.92 -5.84 c1.12 0 1.64 0.68 1.64 1.76 c0 2.68 -2.68 5.44 -5.08 6.32 l0 0.04 l0 0.8 l0 1.32 l0 0.64 l0.2 3.12 c0.04 0.2 0.28 1.36 0.6 1.36 c0.52 0 1.08 -0.48 1.44 -0.76 c0.08 -0.12 0.48 -0.48 0.56 -0.52 c0.08 -0.08 0.64 -0.68 0.8 -0.8 c0.12 -0.12 0.52 -0.56 0.56 -0.64 l2.6 -3.12 l4.96 -6.84 l0.28 -0.44 c0 -0.08 0.04 -0.2 0.04 -0.2 l0.4 0 c0.28 0 0.48 0.24 0.48 0.52 l0 0.08 l-0.88 1.28 l-5.84 7.96 l-2.48 2.88 c0 0.04 -0.48 0.52 -0.68 0.72 c-0.84 0.8 -2.16 1.92 -3.44 1.92 c-1.44 0 -1.96 -1.68 -2.2 -2.84 c0 -0.16 -0.12 -0.88 -0.16 -1 c0 -0.12 -0.04 -0.68 -0.08 -0.8 c0 -0.28 -0.08 -1.76 -0.08 -2.08 l0 -0.52 l0 -2.32 l0 -0.24 l-1.2 2.48 c-0.84 1.76 -2.08 2.76 -4.12 2.76 c-0.04 -0.08 -0.16 -0.28 -0.2 -0.32 c-0.48 -0.72 -0.56 -1.64 -0.56 -2.52 c0 -1.44 0.28 -2.96 0.72 -4.36 l0.88 -2.76 l1.04 -2.72 c0.08 -0.12 0.56 -1.2 0.72 -1.52 c0.16 -0.28 0.84 -1.64 1 -1.92 z M6.16 22.36 l0.04 0 l2.56 -1.76 c2.2 -1.52 4.08 -3.52 5.2 -5.96 c0.28 -0.6 0.6 -1.28 0.6 -1.96 c0 -0.28 -0.08 -0.52 -0.4 -0.52 c-2.8 0 -6.2 4.88 -7 7.28 l-0.96 2.84 c-0.04 0.04 -0.04 0.08 -0.04 0.08 z M11.04 24 l-1.56 1.4 l-1.4 1.44 c-0.08 0.08 -0.56 0.6 -0.68 0.72 c-0.08 0.12 -0.48 0.6 -0.56 0.72 c-0.04 0.08 -0.28 0.44 -0.36 0.52 c-0.08 0.12 -0.24 0.44 -0.24 0.44 l0.28 -0.08 c0.04 0 0.16 -0.04 0.16 -0.04 c2.8 -0.88 3.72 -1.64 4.96 -4.24 c0.04 -0.08 0.28 -0.64 0.36 -0.8 c0.08 -0.24 0.2 -0.52 0.2 -0.76 c-0.24 0 -0.52 0.2 -0.68 0.36 c-0.12 0.08 -0.44 0.32 -0.48 0.32 z M4.48 27.8 c0.04 0 0.04 -0.04 0 -0.04 l0 0.04 z M30.291999999999998 22.84 c0.24 -0.44 0.56 -1.28 1.2 -1.28 c0.28 0 0.52 0.16 0.8 0.32 c0.48 0.32 1.4 0.76 1.4 1.52 c0 0.28 -0.16 0.52 -0.28 0.72 l-1.44 3.04 l-1.48 3.68 l-0.56 1.72 l-0.4 1.44 c-0.08 0.4 -0.16 0.92 -0.16 1.4 c0 0.08 0 0.32 0.12 0.32 c0.36 0 0.76 -0.44 0.96 -0.64 l0.56 -0.56 c0.16 -0.2 0.72 -0.8 0.8 -0.88 l2.32 -2.8 l5.16 -6.96 c0.08 -0.08 0.16 -0.24 0.32 -0.24 c0.32 0 0.64 0.16 0.64 0.56 l0 0.08 l-1.12 1.64 l-4.88 6.52 l-1.88 2.16 c-0.08 0.04 -0.88 0.88 -1.16 1.16 c-0.52 0.52 -1.76 1.64 -2.56 1.64 c-1.92 0 -2.48 -1.68 -2.48 -3.32 c0 -1.48 0.4 -2.92 0.92 -4.32 c-0.04 0 -0.08 0.04 -0.08 0.04 c-0.12 0.08 -0.52 0.44 -0.6 0.52 l-1.76 1.52 c-0.12 0.08 -0.92 0.68 -1.16 0.84 c-0.76 0.56 -1.76 1.2 -2.76 1.2 c-1.4 0 -2.08 -1.12 -2.08 -2.4 c0 -1.04 0.36 -2.04 0.8 -2.96 c1.44 -3.12 4.84 -6.8 8.6 -6.8 c0.72 0 1.32 0.24 1.84 0.72 c0.08 0.04 0.36 0.4 0.4 0.4 z M21.691999999999997 31.68 c0 0.24 0.2 0.32 0.4 0.32 c0.4 0 0.8 -0.28 1.12 -0.48 c0.16 -0.12 0.72 -0.48 0.76 -0.52 l1.52 -1.2 l2.48 -2.36 l0.92 -1.96 c0.16 -0.32 0.28 -0.72 0.28 -1.08 c0 -0.28 -0.12 -0.4 -0.4 -0.4 c-0.48 0 -1.04 0.28 -1.48 0.52 c-2.2 1.2 -4.36 3.56 -5.28 5.92 c-0.16 0.36 -0.32 0.84 -0.32 1.24 z M27.092 29.759999999999998 l0 -0.04 l0 0.04 z M40.784 22.24 l0 -0.04 c0.32 0 0.56 -0.12 0.84 -0.12 c1.24 0 1.68 1.16 1.68 2.24 c0 0.08 0.04 0.28 -0.04 0.4 l-1.96 3.8 l0 0.04 l2.16 -2.08 l1.88 -1.6 c0.12 -0.08 1.04 -0.76 1.32 -0.96 c1.2 -0.84 2.76 -1.76 4.28 -1.76 c0.84 0 1.32 0.48 1.32 1.28 c0 0.76 -0.28 1.6 -0.6 2.28 l-2.24 4.6 l-0.52 1.36 c-0.16 0.44 -0.36 1.08 -0.36 1.6 c0 0.16 0 0.32 0.2 0.32 c0.68 0 1.4 -0.56 1.88 -0.96 c0.52 -0.32 2.48 -2.08 2.8 -2.56 l1.92 -2.12 l2.84 -3.52 l0.2 -0.2 c0.04 -0.04 0.16 -0.04 0.2 -0.04 c0.2 0 0.44 0.12 0.56 0.28 c0.08 0.16 0.24 0.52 0.24 0.52 l0 0.04 l-0.36 -0.04 l-2.64 3.36 l-2.96 3.32 l-1.48 1.44 c-0.08 0.08 -0.8 0.68 -1.04 0.84 c-0.96 0.76 -2.08 1.44 -3.36 1.44 c-1.72 0 -2.84 -1.28 -2.84 -2.96 c0 -0.76 0.24 -1.56 0.56 -2.24 l1.24 -2.96 c0.12 -0.28 0.16 -0.48 0.16 -0.76 c-0.16 0 -0.4 0.16 -0.56 0.28 c-0.08 0.04 -0.36 0.28 -0.4 0.28 c-0.08 0.08 -0.4 0.32 -0.48 0.4 c-0.28 0.2 -1 0.84 -1.08 0.88 l-2.52 2.44 l-3.36 3.64 c-0.4 0.44 -0.84 0.84 -1.44 0.84 c-1.2 0 -2.12 -0.88 -2.12 -2.04 c0 -1.4 0.96 -3.2 1.76 -4.4 l3.84 -5.92 z M41.264 28.6 c0.04 0 0.04 -0.04 0 -0.04 l0 0.04 z M58.676 23.28 c0.32 0.16 0.6 0.2 0.92 0.32 c0.16 0.08 0.92 0.36 1.08 0.4 c0.2 0.12 0.36 0.28 0.36 0.48 c0 0.12 -0.04 0.24 -0.12 0.32 l-0.52 1 l-1.64 3.52 c-0.04 0.08 -0.24 0.68 -0.32 0.84 c-0.16 0.48 -0.32 0.96 -0.32 1.48 c0 0.04 -0.04 0.2 0.08 0.2 c0.28 0 0.64 -0.28 0.8 -0.4 c0.08 -0.08 0.56 -0.44 0.64 -0.56 c0.04 0 0.16 -0.12 0.2 -0.16 c0.24 -0.24 1 -1 1.12 -1.08 c0.84 -0.92 1.64 -1.92 2.08 -3.08 l1.12 -2.96 s0.44 0.08 0.56 0.08 c0.64 0.12 1.76 0.52 1.76 1.32 c0 0.24 -0.08 0.48 -0.12 0.68 l-1.68 4.84 l0.72 -0.52 l1.56 -1.36 l1.08 -1.08 c0.2 -0.2 0.84 -0.92 0.92 -1 l1.24 -1.56 l0.08 0 c0.32 0 0.56 0.16 0.56 0.48 l0 0.08 l-1.08 1.36 l-1.24 1.36 l-1.24 1.2 l-1.52 1.28 l-1.56 1.16 c-0.04 0.04 -0.08 0.08 -0.08 0.12 l-1.6 3.92 l-1.52 3.24 l-0.92 1.72 l-0.88 1.32 c-0.96 1.48 -2.16 2.44 -3.76 3.08 c-0.72 0.24 -1.44 0.4 -2.2 0.4 c-1.36 0 -2.32 -0.6 -2.32 -2.04 c0 -2.84 2.92 -5.68 4.92 -7.24 c0.24 -0.2 1.08 -0.84 1.16 -0.88 l3.68 -2.36 l0.24 -0.6 l0.68 -2.04 l-1.08 1.04 c-0.04 0 -0.44 0.36 -0.6 0.48 c-0.72 0.56 -1.64 1.16 -2.56 1.16 c-1.2 0 -1.92 -1.16 -1.92 -2.24 c0 -0.64 0.6 -3 1.04 -3.44 l1.92 -3.72 c0.08 -0.12 0.24 -0.52 0.28 -0.56 z M60.196000000000005 34.519999999999996 l-0.04 0 l-0.52 0.32 l-1.08 0.8 l-1.84 1.56 l-1.56 1.48 c-0.12 0.12 -0.76 0.76 -0.92 0.96 c-0.76 0.76 -1.96 2.36 -1.96 3.36 c0 0.68 0.64 1.04 1.28 1.04 c1.76 0 4.2 -3.68 4.68 -5.16 l1.96 -4.4 c-0.04 0 -0.04 0.04 0 0.04 z M79.848 22.84 c0.24 -0.44 0.56 -1.28 1.2 -1.28 c0.28 0 0.52 0.16 0.8 0.32 c0.48 0.32 1.4 0.76 1.4 1.52 c0 0.28 -0.16 0.52 -0.28 0.72 l-1.44 3.04 l-1.48 3.68 l-0.56 1.72 l-0.4 1.44 c-0.08 0.4 -0.16 0.92 -0.16 1.4 c0 0.08 0 0.32 0.12 0.32 c0.36 0 0.76 -0.44 0.96 -0.64 l0.56 -0.56 c0.16 -0.2 0.72 -0.8 0.8 -0.88 l2.32 -2.8 l5.16 -6.96 c0.08 -0.08 0.16 -0.24 0.32 -0.24 c0.32 0 0.64 0.16 0.64 0.56 l0 0.08 l-1.12 1.64 l-4.88 6.52 l-1.88 2.16 c-0.08 0.04 -0.88 0.88 -1.16 1.16 c-0.52 0.52 -1.76 1.64 -2.56 1.64 c-1.92 0 -2.48 -1.68 -2.48 -3.32 c0 -1.48 0.4 -2.92 0.92 -4.32 c-0.04 0 -0.08 0.04 -0.08 0.04 c-0.12 0.08 -0.52 0.44 -0.6 0.52 l-1.76 1.52 c-0.12 0.08 -0.92 0.68 -1.16 0.84 c-0.76 0.56 -1.76 1.2 -2.76 1.2 c-1.4 0 -2.08 -1.12 -2.08 -2.4 c0 -1.04 0.36 -2.04 0.8 -2.96 c1.44 -3.12 4.84 -6.8 8.6 -6.8 c0.72 0 1.32 0.24 1.84 0.72 c0.08 0.04 0.36 0.4 0.4 0.4 z M71.248 31.68 c0 0.24 0.2 0.32 0.4 0.32 c0.4 0 0.8 -0.28 1.12 -0.48 c0.16 -0.12 0.72 -0.48 0.76 -0.52 l1.52 -1.2 l2.48 -2.36 l0.92 -1.96 c0.16 -0.32 0.28 -0.72 0.28 -1.08 c0 -0.28 -0.12 -0.4 -0.4 -0.4 c-0.48 0 -1.04 0.28 -1.48 0.52 c-2.2 1.2 -4.36 3.56 -5.28 5.92 c-0.16 0.36 -0.32 0.84 -0.32 1.24 z M76.648 29.759999999999998 l0 -0.04 l0 0.04 z M89.82 21.52 l0 -0.08 s0.16 -0.2 0.28 -0.32 c1.28 0.24 2.44 1.04 2.44 2.44 c0 0.2 -0.04 0.44 -0.12 0.6 l-1.24 2.88 c0.12 -0.16 0.64 -0.84 0.76 -0.96 c0.2 -0.28 1.24 -1.52 1.48 -1.76 c0.96 -1.2 3.04 -3.12 4.52 -3.12 c1.2 0 1.76 0.96 1.76 2.08 c0 0.88 -0.28 1.72 -0.72 2.52 l-1.72 3.28 c0.04 -0.08 0.32 -0.36 0.36 -0.4 l4.04 -4.04 l1.44 -1.24 c0.08 -0.08 0.76 -0.6 0.96 -0.76 c0.96 -0.64 2.12 -1.4 3.32 -1.4 c0.92 0 1.56 0.44 1.56 1.4 c0 0.72 -0.84 3.36 -1.4 3.92 l-2.36 4 c-0.48 0.84 -0.92 1.92 -0.92 2.88 c0 0.36 0 0.96 0.4 1.12 l0.12 0 c1.12 0 2.24 -1.16 2.88 -1.92 c0.12 -0.12 0.6 -0.64 0.68 -0.72 c0.2 -0.28 0.92 -1.2 1 -1.32 l3.92 -5.72 c0.16 -0.24 0.28 -0.4 0.28 -0.68 l0.2 0 c0.32 0 0.52 0 0.72 0.32 c0.04 0.04 0.08 0.12 0.08 0.2 c0 0.04 0 0.04 -0.04 0.08 c-0.08 0.24 -0.44 0.76 -0.44 0.8 l-2.44 3.8 l-2.36 3.24 c-1 1.52 -3.44 3.72 -5.24 3.72 c-2 0 -3.12 -1.16 -3.12 -3.12 c0 -1.32 0.48 -2.56 1.08 -3.68 l1.8 -3.36 c0.16 -0.32 0.36 -0.68 0.36 -1.04 c0 -0.04 0 -0.12 -0.04 -0.16 l-0.08 0 c-0.52 0 -1.8 0.76 -2.24 1.2 c-0.28 0.24 -1.08 0.92 -1.16 1 l-2 1.96 l-2.6 2.84 l-1.72 2.36 c-0.36 0.48 -0.84 0.64 -1.44 0.64 c-0.8 0 -2.12 0 -2.12 -1.16 c0 -0.12 0 -0.24 0.04 -0.32 l4.16 -7.92 c0.08 -0.16 0.2 -0.44 0.24 -0.64 c-0.8 0.32 -1.48 1.08 -2.04 1.68 c-0.24 0.28 -0.88 1 -0.96 1.08 l-1.4 1.76 l-1.2 1.8 c-0.2 0.28 -0.48 0.76 -0.64 1.12 l-0.88 2.28 c0 0.04 0 0.04 -0.04 0.08 c-0.36 0.2 -0.76 0.36 -1.2 0.36 c-0.88 0 -1.76 -0.44 -2.32 -1.08 l0 -0.12 c0 -1 0.92 -3.72 1.32 -4.6 l0.96 -2.2 z M97.22 29.08 l0 0.04 c0.04 0 0.04 -0.04 0 -0.04 z M91.17999999999999 27.08 l0 -0.04 c-0.04 0 -0.04 0.04 0 0.04 z M122.952 22.84 c0.24 -0.44 0.56 -1.28 1.2 -1.28 c0.28 0 0.52 0.16 0.8 0.32 c0.48 0.32 1.4 0.76 1.4 1.52 c0 0.28 -0.16 0.52 -0.28 0.72 l-1.44 3.04 l-1.48 3.68 l-0.56 1.72 l-0.4 1.44 c-0.08 0.4 -0.16 0.92 -0.16 1.4 c0 0.08 0 0.32 0.12 0.32 c0.36 0 0.76 -0.44 0.96 -0.64 l0.56 -0.56 c0.16 -0.2 0.72 -0.8 0.8 -0.88 l2.32 -2.8 l5.16 -6.96 c0.08 -0.08 0.16 -0.24 0.32 -0.24 c0.32 0 0.64 0.16 0.64 0.56 l0 0.08 l-1.12 1.64 l-4.88 6.52 l-1.88 2.16 c-0.08 0.04 -0.88 0.88 -1.16 1.16 c-0.52 0.52 -1.76 1.64 -2.56 1.64 c-1.92 0 -2.48 -1.68 -2.48 -3.32 c0 -1.48 0.4 -2.92 0.92 -4.32 c-0.04 0 -0.08 0.04 -0.08 0.04 c-0.12 0.08 -0.52 0.44 -0.6 0.52 l-1.76 1.52 c-0.12 0.08 -0.92 0.68 -1.16 0.84 c-0.76 0.56 -1.76 1.2 -2.76 1.2 c-1.4 0 -2.08 -1.12 -2.08 -2.4 c0 -1.04 0.36 -2.04 0.8 -2.96 c1.44 -3.12 4.84 -6.8 8.6 -6.8 c0.72 0 1.32 0.24 1.84 0.72 c0.08 0.04 0.36 0.4 0.4 0.4 z M114.352 31.68 c0 0.24 0.2 0.32 0.4 0.32 c0.4 0 0.8 -0.28 1.12 -0.48 c0.16 -0.12 0.72 -0.48 0.76 -0.52 l1.52 -1.2 l2.48 -2.36 l0.92 -1.96 c0.16 -0.32 0.28 -0.72 0.28 -1.08 c0 -0.28 -0.12 -0.4 -0.4 -0.4 c-0.48 0 -1.04 0.28 -1.48 0.52 c-2.2 1.2 -4.36 3.56 -5.28 5.92 c-0.16 0.36 -0.32 0.84 -0.32 1.24 z M119.752 29.759999999999998 l0 -0.04 l0 0.04 z M133.44400000000002 22.24 l0 -0.04 c0.32 0 0.56 -0.12 0.84 -0.12 c1.24 0 1.68 1.16 1.68 2.24 c0 0.08 0.04 0.28 -0.04 0.4 l-1.96 3.8 l0 0.04 l2.16 -2.08 l1.88 -1.6 c0.12 -0.08 1.04 -0.76 1.32 -0.96 c1.2 -0.84 2.76 -1.76 4.28 -1.76 c0.84 0 1.32 0.48 1.32 1.28 c0 0.76 -0.28 1.6 -0.6 2.28 l-2.24 4.6 l-0.52 1.36 c-0.16 0.44 -0.36 1.08 -0.36 1.6 c0 0.16 0 0.32 0.2 0.32 c0.68 0 1.4 -0.56 1.88 -0.96 c0.52 -0.32 2.48 -2.08 2.8 -2.56 l1.92 -2.12 l2.84 -3.52 l0.2 -0.2 c0.04 -0.04 0.16 -0.04 0.2 -0.04 c0.2 0 0.44 0.12 0.56 0.28 c0.08 0.16 0.24 0.52 0.24 0.52 l0 0.04 l-0.36 -0.04 l-2.64 3.36 l-2.96 3.32 l-1.48 1.44 c-0.08 0.08 -0.8 0.68 -1.04 0.84 c-0.96 0.76 -2.08 1.44 -3.36 1.44 c-1.72 0 -2.84 -1.28 -2.84 -2.96 c0 -0.76 0.24 -1.56 0.56 -2.24 l1.24 -2.96 c0.12 -0.28 0.16 -0.48 0.16 -0.76 c-0.16 0 -0.4 0.16 -0.56 0.28 c-0.08 0.04 -0.36 0.28 -0.4 0.28 c-0.08 0.08 -0.4 0.32 -0.48 0.4 c-0.28 0.2 -1 0.84 -1.08 0.88 l-2.52 2.44 l-3.36 3.64 c-0.4 0.44 -0.84 0.84 -1.44 0.84 c-1.2 0 -2.12 -0.88 -2.12 -2.04 c0 -1.4 0.96 -3.2 1.76 -4.4 l3.84 -5.92 z M133.924 28.6 c0.04 0 0.04 -0.04 0 -0.04 l0 0.04 z M152.736 20 c0 -1.4 1.52 -3 2.96 -3 c1 0 1.56 0.76 1.56 1.76 c0 1.4 -1.32 2.96 -2.8 2.96 c-0.96 0 -1.72 -0.72 -1.72 -1.72 z M147.976 31.4 c0 -1.24 0.44 -2.48 0.88 -3.64 c0.04 -0.12 0.24 -0.68 0.28 -0.72 l2 -4.32 c0.16 -0.36 0.4 -0.6 0.76 -0.6 c0.32 0 0.6 0.12 0.88 0.2 c0.68 0.24 1.68 0.64 1.68 1.52 c0 0.12 0 0.28 -0.08 0.36 c-0.56 0.92 -1.12 2.08 -1.6 3.08 c-0.08 0.2 -0.52 1.24 -0.6 1.48 c-0.28 0.72 -0.56 1.56 -0.56 2.32 c0 0.28 0.04 0.48 0.36 0.48 c0.64 0 1.32 -0.44 1.84 -0.72 c0.12 -0.08 0.56 -0.32 0.6 -0.36 c0.32 -0.24 1.28 -0.88 1.36 -0.96 l1.6 -1.2 l0.36 -0.36 l1.6 -1.76 l1.68 -2.12 c0.08 -0.08 0.24 -0.28 0.36 -0.32 c0.24 0 0.72 0.04 0.72 0.36 l0 0.28 l-0.92 1.24 l-1.36 1.68 l-1.6 1.72 c-0.12 0.12 -1 0.96 -1.28 1.2 c-1.64 1.64 -4.4 3.48 -6.76 3.48 c-1.44 0 -2.2 -0.92 -2.2 -2.32 z"/></g><g id="SvgjsG1589" featureKey="sloganFeature-0" transform="matrix(1.8794290729461438,0,0,1.8794290729461438,7.618627632494071,205.95100192244578)" fill="#000"><path d="M19.789503906249998 8.154 l-5.5176 0 l0 3.8477 l4.7852 0 l0 2.0703 l-4.7852 0 l0 5.9277 l-2.3633 0 l0 -13.926 l7.8809 0 l0 2.0801 z M36.366398437499996 20 l-1.1035 -3.0957 l-6.084 0 l-1.0938 3.0957 l-2.4121 0 l5.127 -13.926 l2.8418 0 l5.127 13.926 l-2.4023 0 z M29.8915984375 14.9023 l4.668 0 l-2.334 -6.582 z M50.40376484375 20.18555 c-2.9492 0 -5.1563 -1.4063 -5.6055 -3.8672 l2.4023 -0.55664 c0.25391 1.6016 1.5723 2.4805 3.291 2.4805 c1.3574 0 2.5879 -0.57617 2.5684 -2.041 c-0.019531 -1.5234 -1.709 -1.9629 -3.5352 -2.4805 c-2.1094 -0.61523 -4.2773 -1.3184 -4.2773 -3.877 c0 -2.5977 2.1289 -3.9648 4.7754 -3.9648 c2.4414 0 4.7559 1.0254 5.293 3.5254 l-2.2559 0.56641 c-0.3125 -1.4844 -1.4648 -2.1387 -2.9199 -2.1387 c-1.2988 0 -2.5293 0.55664 -2.5293 1.9727 c0 1.2891 1.4746 1.6895 3.1641 2.1582 c2.1777 0.60547 4.6973 1.3477 4.6973 4.1406 c0 2.8809 -2.4121 4.082 -5.0684 4.082 z M72.00021875 6.074 l2.3438 0 l0 13.926 l-2.3438 0 l0 -5.9473 l-6.4648 0 l0 5.9473 l-2.3438 0 l0 -13.926 l2.3438 0 l0 5.918 l6.4648 0 l0 -5.918 z M83.03956328125 20 l0 -13.926 l2.334 0 l0 13.926 l-2.334 0 z M100.1435140625 20.18555 c-4.0039 0 -7.0313 -2.7441 -7.0313 -7.1582 c0 -4.4043 3.0273 -7.1484 7.0313 -7.1484 c3.9941 0 7.0215 2.7441 7.0215 7.1484 c0 4.4141 -3.0273 7.1582 -7.0215 7.1582 z M100.1435140625 18.0176 c2.6367 0 4.6973 -1.8262 4.6973 -4.9902 c0 -3.1348 -2.0605 -4.9707 -4.6973 -4.9707 s-4.6973 1.8359 -4.6973 4.9707 c0 3.1641 2.0605 4.9902 4.6973 4.9902 z M124.34738671875 6.074 l2.334 0 l0 13.926 l-2.6172 0 l-6.8359 -10.625 l0 10.625 l-2.3145 0 l0 -13.926 l2.5879 0 l6.8457 10.557 l0 -10.557 z M139.85933125 20.18555 c-2.9492 0 -5.1563 -1.4063 -5.6055 -3.8672 l2.4023 -0.55664 c0.25391 1.6016 1.5723 2.4805 3.291 2.4805 c1.3574 0 2.5879 -0.57617 2.5684 -2.041 c-0.019531 -1.5234 -1.709 -1.9629 -3.5352 -2.4805 c-2.1094 -0.61523 -4.2773 -1.3184 -4.2773 -3.877 c0 -2.5977 2.1289 -3.9648 4.7754 -3.9648 c2.4414 0 4.7559 1.0254 5.293 3.5254 l-2.2559 0.56641 c-0.3125 -1.4844 -1.4648 -2.1387 -2.9199 -2.1387 c-1.2988 0 -2.5293 0.55664 -2.5293 1.9727 c0 1.2891 1.4746 1.6895 3.1641 2.1582 c2.1777 0.60547 4.6973 1.3477 4.6973 4.1406 c0 2.8809 -2.4121 4.082 -5.0684 4.082 z"/></g>
			</g>
		</svg>
	